<svg height="480pt" viewBox="0 0 480.09831 480" width="480pt" xmlns="http://www.w3.org/2000/svg"><path d="m40 480.050781h240c22.429688 0 40-24.601562 40-56 0-27.554687-13.53125-49.859375-32-54.917969v-258.167968c18.46875-5.058594 32-27.363282 32-54.914063 0-31.398437-17.570312-55.9999998-40-55.9999998h-240c-22.429688 0-40 24.6015628-40 55.9999998v368c0 31.398438 17.570312 56 40 56zm264-56c0 21.679688-10.992188 40-24 40h-211.75c.253906-.355469.4375-.796875.6875-1.160156.109375-.164063.234375-.300781.34375-.464844l.011719-.023437.042969-.0625.023437-.023438c.382813-.578125.660156-1.265625 1.023437-1.863281 1.199219-1.90625 2.285157-3.878906 3.253907-5.914063.058593-.125.136719-.234374.191406-.363281.355469-.785156.582031-1.679687.910156-2.488281.886719-2.109375 1.667969-4.261719 2.328125-6.449219.035156-.113281.089844-.214843.121094-.328125l.003906-.054687c.765625-2.769531 1.367188-5.582031 1.804688-8.421875.136718-.886719.210937-1.800782.320312-2.707032.175782-1.410156.40625-2.800781.503906-4.230468.117188-1.78125.179688-3.609375.179688-5.445313.324219-14.230469-3.78125-28.207031-11.75-40h211.75c13.007812 0 24 18.320313 24 40zm-24-408c13.007812 0 24 18.320313 24 40 0 21.679688-10.992188 40-24 40h-211.75c7.96875-11.796875 12.074219-25.773437 11.75-40-.023438-3.371093-.261719-6.738281-.710938-10.082031-.136718-1.089844-.3125-2.148438-.492187-3.214844-.148437-.863281-.222656-1.753906-.398437-2.601562-.195313-.941406-.539063-1.804688-.769532-2.734375-.472656-1.925781-.972656-3.808594-1.585937-5.628907-.148438-.433593-.226563-.914062-.378907-1.339843h-.003906l-.003906-.015625c-.414062-1.144532-.9375-2.1875-1.40625-3.28125-.683594-1.613282-1.394531-3.175782-2.1875-4.671875-.882812-1.660157-1.777344-3.300781-2.78125-4.804688-.09375-.140625-.199219-.246093-.292969-.382812-.265625-.390625-.464843-.863281-.738281-1.242188zm-264 40c0-21.679687 10.992188-40 24-40 1.496094.019531 2.976562.277344 4.390625.761719.730469.28125 1.4375.613281 2.117187.992188.761719.335937 1.496094.726562 2.203126 1.167968.351562.238282.703124.488282 1.050781.761719.839843.671875 1.632812 1.398437 2.375 2.175781.351562.359375.726562.648438 1.074219 1.035156.4375.492188.832031 1.097657 1.253906 1.636719.632812.816407 1.261718 1.636719 1.84375 2.550781.457031.710938.875 1.488282 1.300781 2.253907.578125 1.058593 1.132813 2.15625 1.644531 3.308593.296875.664063.589844 1.324219.859375 2.015626.429688 1.097656.777344 2.28125 1.140625 3.445312.398438 1.277344.78125 2.5625 1.09375 3.894531.347656 1.492188.636719 3.019531.875 4.585938.105469.695312.234375 1.375.316406 2.078125.296876 2.433594.449219 4.882812.460938 7.335937 0 21.679688-10.992188 40-24 40-4.417969 0-8 3.582031-8 8s3.582031 8 8 8h232v256h-232c-4.417969 0-8 3.582031-8 8s3.582031 8 8 8c13.007812 0 24 18.320313 24 40-.019531 2.21875-.160156 4.433594-.414062 6.640625-.082032.761719-.164063 1.523438-.269532 2.277344-.253906 1.769531-.59375 3.488281-.988281 5.167969-.136719.578125-.238281 1.171875-.390625 1.738281-.289062 1.070312-.671875 2.046875-1.015625 3.066406-.457031 1.367188-.894531 2.742188-1.449219 4.023438-.308594.71875-.679687 1.355468-1.015625 2.039062-.664062 1.394532-1.402343 2.75-2.21875 4.058594-.742187 1.167969-1.550781 2.289062-2.429687 3.359375-.359375.433594-.753906.859375-1.160156 1.296875-.917969.992188-1.914063 1.90625-2.976563 2.730469-.320313.246093-.667969.46875-1.003906.699219-1.132813.785156-2.355469 1.429687-3.636719 1.929687-.230469.085937-.472656.144531-.707031.21875-1.394531.472656-2.851563.726563-4.324219.753906-13.007812 0-24-18.320312-24-40zm0 0"/><path d="m479.679688 168.738281c.316406-3.683593 7.035156-90.027343-47.679688-155.566406v-5.121094c0-2.125-.839844-4.160156-2.34375-5.660156-1.5-1.5-3.535156-2.34375-5.65625-2.3398438h-32c-2.121094-.0039062-4.15625.8398438-5.65625 2.3398438-1.503906 1.5-2.34375 3.535156-2.34375 5.660156v5.121094c-54.714844 65.539063-47.996094 151.882813-47.679688 155.566406.234376 2.761719 1.886719 5.203125 4.359376 6.453125l19.453124 9.84375-12.414062 8.382813c-2.777344 1.875-4.09375 5.28125-3.296875 8.539062 7 28.574219 30.886719 50.65625 39.578125 57.921875v28.171875h-24c-11.679688-.03125-21.675781 8.371094-23.652344 19.882813-1.980468 11.507812 4.632813 22.765625 15.652344 26.640625v17.476562h-8c-2.121094-.003906-4.15625.839844-5.65625 2.339844-1.503906 1.5-2.34375 3.535156-2.34375 5.660156v112c0 2.121094.839844 4.15625 2.34375 5.65625 1.5 1.5 3.535156 2.34375 5.65625 2.34375h128c2.121094 0 4.15625-.84375 5.65625-2.34375 1.503906-1.5 2.34375-3.535156 2.34375-5.65625v-112c0-2.125-.839844-4.160156-2.34375-5.660156-1.5-1.5-3.535156-2.34375-5.65625-2.339844h-8v-17.476562c11.019531-3.871094 17.632812-15.132813 15.652344-26.640625-1.976563-11.511719-11.972656-19.914063-23.652344-19.882813h-24v-28.171875c8.691406-7.265625 32.578125-29.347656 39.578125-57.921875.796875-3.257812-.519531-6.664062-3.296875-8.539062l-12.414062-8.382813 19.453124-9.84375c2.472657-1.25 4.125-3.691406 4.359376-6.453125zm-118.164063 34.671875 18.859375-12.726562c2.351562-1.589844 3.6875-4.304688 3.507812-7.136719-.179687-2.832031-1.84375-5.355469-4.375-6.636719l-27.460937-13.898437c-.484375-16.039063.25-73.375 31.953125-122.867188v197.78125c-9.824219-9.808593-17.484375-21.566406-22.484375-34.515625zm102.484375 260.640625h-112v-96h112zm-96-112v-16h80v16zm96-40c-.003906 4.414063-3.582031 7.996094-8 8h-96c-4.417969 0-8-3.582031-8-8s3.582031-8 8-8h96c4.417969 0 7.996094 3.582031 8 8zm-64-24v-272h16v272zm63.953125-125.039062-27.460937 13.898437c-2.53125 1.277344-4.195313 3.804688-4.375 6.636719-.179688 2.832031 1.15625 5.546875 3.507812 7.136719l18.859375 12.726562c-5 12.949219-12.660156 24.707032-22.484375 34.515625v-197.78125c31.703125 49.492188 32.4375 106.828125 31.953125 122.867188zm0 0"/><path d="m56 160.050781h192c4.417969 0 8-3.582031 8-8s-3.582031-8-8-8h-192c-4.417969 0-8 3.582031-8 8s3.582031 8 8 8zm0 0"/><path d="m56 240.050781h192c4.417969 0 8-3.582031 8-8s-3.582031-8-8-8h-192c-4.417969 0-8 3.582031-8 8s3.582031 8 8 8zm0 0"/><path d="m56 320.050781h192c4.417969 0 8-3.582031 8-8s-3.582031-8-8-8h-192c-4.417969 0-8 3.582031-8 8s3.582031 8 8 8zm0 0"/><path d="m376 384.050781c-2.121094-.003906-4.15625.839844-5.65625 2.339844-1.503906 1.5-2.34375 3.535156-2.34375 5.660156v48c0 4.417969 3.582031 8 8 8s8-3.582031 8-8v-48c0-2.125-.839844-4.160156-2.34375-5.660156-1.5-1.5-3.535156-2.34375-5.65625-2.339844zm0 0"/><path d="m440 384.050781h-16c-4.417969 0-8 3.582031-8 8s3.582031 8 8 8h8v24c0 4.417969 3.582031 8 8 8s8-3.582031 8-8v-32c0-2.125-.839844-4.160156-2.34375-5.660156-1.5-1.5-3.535156-2.34375-5.65625-2.339844zm0 0"/></svg>